<?xml version="1.0" encoding="UTF-8" standalone="no" ?>
<!DOCTYPE svg PUBLIC "-//W3C//DTD SVG 1.1//EN" "http://www.w3.org/Graphics/SVG/1.1/DTD/svg11.dtd">
<svg xmlns="http://www.w3.org/2000/svg" xmlns:xlink="http://www.w3.org/1999/xlink" version="1.1" width="32" height="32" viewBox="0 0 32 32" xml:space="preserve">
<desc>Created with Fabric.js 5.2.4</desc>
<defs>
</defs>
<g transform="matrix(1 0 0 1 16 16)" id="707dbcde-109d-4556-99f3-480571bbc33b"  >
<rect style="stroke: none; stroke-width: 1; stroke-dasharray: none; stroke-linecap: butt; stroke-dashoffset: 0; stroke-linejoin: miter; stroke-miterlimit: 4; fill: rgb(255,255,255); fill-rule: nonzero; opacity: 1; visibility: hidden;" vector-effect="non-scaling-stroke"  x="-16" y="-16" rx="0" ry="0" width="32" height="32" />
</g>
<g transform="matrix(Infinity NaN NaN Infinity 0 0)" id="9d724620-5e4d-4e4a-967a-393e6421e059"  >
</g>
<g transform="matrix(0.02 0 0 0.02 16 16)"  >
<g style="" vector-effect="non-scaling-stroke"   >
		<g transform="matrix(1 0 0 1 0 0)" id="path1"  >
<path style="stroke: none; stroke-width: 2.48641; stroke-dasharray: none; stroke-linecap: butt; stroke-dashoffset: 0; stroke-linejoin: miter; stroke-miterlimit: 4; fill: rgb(224,72,46); fill-rule: evenodd; opacity: 1;" vector-effect="non-scaling-stroke"  transform=" translate(-601, -720)" d="M 0 0 L 1202 0 L 1202 1440 L 0 1440 Z" stroke-linecap="round" />
</g>
		<g transform="matrix(1 0 0 1 -240 -233)" id="path136"  >
<path style="stroke: none; stroke-width: 2.48677; stroke-dasharray: none; stroke-linecap: butt; stroke-dashoffset: 0; stroke-linejoin: miter; stroke-miterlimit: 4; fill: rgb(245,245,245); fill-rule: evenodd; opacity: 1;" vector-effect="non-scaling-stroke"  transform=" translate(-361, -487)" d="M 662 62 L 306 62 L 306 62 L 306 62 L 305.547 62 L 305.651 62 L 60 301 L 60 301 L 60 912 L 445 912 L 662 668 L 662 668 Z" stroke-linecap="round" />
</g>
		<g transform="matrix(1 0 0 1 -240 -233)" id="path91"  >
<path style="stroke: none; stroke-width: 2.47908; stroke-dasharray: none; stroke-linecap: butt; stroke-dashoffset: 0; stroke-linejoin: miter; stroke-miterlimit: 4; fill: rgb(224,72,46); fill-rule: nonzero; opacity: 1;" vector-effect="non-scaling-stroke"  transform=" translate(-361, -487)" d="M 662 674 L 662 646 C 589.891 725.236 517.11 804.78 445 884 L 60 884 L 60 912 L 445 912 C 517.11 832.78 589.891 753.236 662 674 Z M 662 619 L 662 644 L 445 882 L 60 882 L 60 856 L 445 856 Z M 445 299 L 662 62 L 662 64 L 445 302 M 445 299 L 60 299 L 60 302 L 445 302 M 60 331 L 60 327 L 445 327 L 662 90 L 662 93 L 445 331 Z M 60 360 L 60 355 L 445 355 L 662 117 L 662 122 L 445 360 Z M 60 389 L 60 383 L 445 383 L 662 145 L 662 151 L 445 389 Z M 60 418 L 60 411 L 445 411 L 662 173 L 662 180 L 445 418 Z M 60 447 L 60 439 L 445 439 L 662 201 L 662 209 L 445 447 Z M 662 229 L 662 238 L 445 476 L 60 476 L 60 467 L 445 467 Z M 60 505 L 60 494 L 445 494 L 662 257 L 662 268 L 445 505 Z M 662 285 L 662 297 L 445 534 L 60 534 L 60 522 L 445 522 Z M 662 313 L 662 326 L 445 563 L 60 563 L 60 550 L 445 550 Z M 662 340 L 662 355 L 445 592 L 60 592 L 60 578 L 445 578 Z M 662 368 L 662 384 L 445 621 L 60 621 L 60 606 L 445 606 Z M 60 650 L 60 634 L 445 634 L 662 396 L 662 413 L 445 650 Z M 662 424 L 662 442 L 445 679 L 60 679 L 60 661 L 445 661 Z M 60 708 L 60 689 L 445 689 L 662 452 L 662 471 L 445 708 Z M 662 479 L 662 500 L 445 737 L 60 737 L 60 717 L 445 717 Z M 60 766 L 60 745 L 445 745 L 662 507 L 662 529 L 445 766 Z M 60 795 L 60 773 L 445 773 L 662 535 L 662 558 L 445 795 Z M 60 824 L 60 800 L 445 800 L 662 563 L 662 587 L 445 824 Z M 60 853 L 60 828 L 445 828 L 662 591 L 662 616 L 445 853 Z" stroke-linecap="round" />
</g>
		<g transform="matrix(1 0 0 1 240 -134)" id="path47"  >
<path style="stroke: none; stroke-width: 2.48677; stroke-dasharray: none; stroke-linecap: butt; stroke-dashoffset: 0; stroke-linejoin: miter; stroke-miterlimit: 4; fill: rgb(245,245,245); fill-rule: evenodd; opacity: 1;" vector-effect="non-scaling-stroke"  transform=" translate(-841, -586)" d="M 1142 161 L 786 161 L 786 161 L 786 161 L 785.547 161 L 785.651 161 L 540 400 L 540 400 L 540 1011 L 925 1011 L 1142 767 L 1142 767 Z" stroke-linecap="round" />
</g>
		<g transform="matrix(1 0 0 1 240 -134)" id="path137"  >
<path style="stroke: none; stroke-width: 2.47908; stroke-dasharray: none; stroke-linecap: butt; stroke-dashoffset: 0; stroke-linejoin: miter; stroke-miterlimit: 4; fill: rgb(224,72,46); fill-rule: nonzero; opacity: 1;" vector-effect="non-scaling-stroke"  transform=" translate(-841, -586)" d="M 1142 773 L 1142 745 C 1069.89 824.236 997.11 903.78 925 983 L 540 983 L 540 1011 L 925 1011 C 997.11 931.78 1069.89 852.236 1142 773 Z M 1142 718 L 1142 743 L 925 981 L 540 981 L 540 955 L 925 955 Z M 925 398 L 1142 161 L 1142 163 L 925 401 M 925 398 L 540 398 L 540 401 L 925 401 M 540 430 L 540 426 L 925 426 L 1142 189 L 1142 192 L 925 430 Z M 540 459 L 540 454 L 925 454 L 1142 216 L 1142 221 L 925 459 Z M 540 488 L 540 482 L 925 482 L 1142 244 L 1142 250 L 925 488 Z M 540 517 L 540 510 L 925 510 L 1142 272 L 1142 279 L 925 517 Z M 540 546 L 540 538 L 925 538 L 1142 300 L 1142 308 L 925 546 Z M 1142 328 L 1142 337 L 925 575 L 540 575 L 540 566 L 925 566 Z M 540 604 L 540 593 L 925 593 L 1142 356 L 1142 367 L 925 604 Z M 1142 384 L 1142 396 L 925 633 L 540 633 L 540 621 L 925 621 Z M 1142 412 L 1142 425 L 925 662 L 540 662 L 540 649 L 925 649 Z M 1142 439 L 1142 454 L 925 691 L 540 691 L 540 677 L 925 677 Z M 1142 467 L 1142 483 L 925 720 L 540 720 L 540 705 L 925 705 Z M 540 749 L 540 733 L 925 733 L 1142 495 L 1142 512 L 925 749 Z M 1142 523 L 1142 541 L 925 778 L 540 778 L 540 760 L 925 760 Z M 540 807 L 540 788 L 925 788 L 1142 551 L 1142 570 L 925 807 Z M 1142 578 L 1142 599 L 925 836 L 540 836 L 540 816 L 925 816 Z M 540 865 L 540 844 L 925 844 L 1142 606 L 1142 628 L 925 865 Z M 540 894 L 540 872 L 925 872 L 1142 634 L 1142 657 L 925 894 Z M 540 923 L 540 899 L 925 899 L 1142 662 L 1142 686 L 925 923 Z M 540 952 L 540 927 L 925 927 L 1142 690 L 1142 715 L 925 952 Z" stroke-linecap="round" />
</g>
		<g transform="matrix(1 0 0 1 0.5 510)" id="path92"  >
<path style="stroke: none; stroke-width: 2.48641; stroke-dasharray: none; stroke-linecap: butt; stroke-dashoffset: 0; stroke-linejoin: miter; stroke-miterlimit: 4; fill: rgb(245,245,245); fill-rule: evenodd; opacity: 1;" vector-effect="non-scaling-stroke"  transform=" translate(-601.5, -1230)" d="M 1078 1114 L 1078 1084 L 961 1084 L 902 1108 L 902 1126 L 925 1126 Z M 1141 1187 L 1141 1144 L 851 1144 L 851 1333 L 686 1333 L 686 1144 L 567 1144 L 502 1212 L 440 1144 L 272 1144 L 272 1239 L 152 1239 L 152 1144 L 62 1144 L 62 1376 L 152 1376 L 152 1281 L 272 1281 L 272 1376 L 362 1376 L 362 1186.84 L 431 1264.39 L 431 1376 L 521 1376 L 521 1264.39 L 595 1186.84 L 595 1376 L 1141 1376 L 1141 1333 L 941 1333 L 941 1281 L 1130 1281 L 1130 1239 L 941 1239 L 941 1187 Z" stroke-linecap="round" />
</g>
</g>
</g>
</svg>